<?xml version="1.0" encoding="UTF-8" standalone="no"?>
<!-- Generator: Adobe Illustrator 21.1.0, SVG Export Plug-In . SVG Version: 6.00 Build 0)  -->

<svg
   xmlns:dc="http://purl.org/dc/elements/1.1/"
   xmlns:cc="http://creativecommons.org/ns#"
   xmlns:rdf="http://www.w3.org/1999/02/22-rdf-syntax-ns#"
   xmlns:svg="http://www.w3.org/2000/svg"
   xmlns="http://www.w3.org/2000/svg"
   xmlns:sodipodi="http://sodipodi.sourceforge.net/DTD/sodipodi-0.dtd"
   xmlns:inkscape="http://www.inkscape.org/namespaces/inkscape"
   version="1.1"
   id="Layer_1"
   x="0px"
   y="0px"
   viewBox="0 0 308.6 144.2"
   style="enable-background:new 0 0 308.6 144.2;"
   xml:space="preserve"
   sodipodi:docname="arm.svg"
   inkscape:version="0.92.3 (2405546, 2018-03-11)"><metadata
   id="metadata11"><rdf:RDF><cc:Work
       rdf:about=""><dc:format>image/svg+xml</dc:format><dc:type
         rdf:resource="http://purl.org/dc/dcmitype/StillImage" /></cc:Work></rdf:RDF></metadata><defs
   id="defs9"><filter
     style="color-interpolation-filters:sRGB;"
     inkscape:label="Fade to Black or White"
     id="filter3740"><feColorMatrix
       values="1.38778e-016 0 0 0 0 0 1.38778e-016 0 0 0 0 0 1.38778e-016 0 0 0 0 0 1 0"
       id="feColorMatrix3738" /></filter></defs><sodipodi:namedview
   pagecolor="#ffffff"
   bordercolor="#666666"
   borderopacity="1"
   objecttolerance="10"
   gridtolerance="10"
   guidetolerance="10"
   inkscape:pageopacity="0"
   inkscape:pageshadow="2"
   inkscape:window-width="1920"
   inkscape:window-height="986"
   id="namedview7"
   showgrid="false"
   inkscape:zoom="1.2702527"
   inkscape:cx="154.3"
   inkscape:cy="72.099998"
   inkscape:window-x="-11"
   inkscape:window-y="-11"
   inkscape:window-maximized="1"
   inkscape:current-layer="Layer_1" />
<style
   type="text/css"
   id="style2">
	.st0{fill:#0091BD;}
</style>
<path
   class="st0"
   d="M89.4,37.9h15.9V106H89.4v-7.1c-7,8.1-15.5,9.2-20.4,9.2c-21,0-33-17.5-33-36.2c0-22.2,15.2-35.8,33.2-35.8  c5,0,13.8,1.3,20.2,9.7L89.4,37.9L89.4,37.9z M52.3,72.3C52.3,84,59.7,94,71.2,94c10,0,19.3-7.3,19.3-21.5c0-14.9-9.2-22-19.3-22  C59.7,50.4,52.3,60.2,52.3,72.3z M124.2,37.9h15.9V44c1.8-2.1,4.4-4.4,6.6-5.7c3.1-1.8,6.1-2.3,9.7-2.3c3.9,0,8.1,0.6,12.5,3.2  l-6.5,14.4c-3.6-2.3-6.5-2.4-8.1-2.4c-3.4,0-6.8,0.5-9.9,3.7c-4.4,4.7-4.4,11.2-4.4,15.7V106h-15.9L124.2,37.9L124.2,37.9z   M179.1,37.9h15.9v6.3c5.3-6.5,11.6-8.1,16.8-8.1c7.1,0,13.8,3.4,17.6,10c5.7-8.1,14.2-10,20.2-10c8.3,0,15.5,3.9,19.4,10.7  c1.3,2.3,3.6,7.3,3.6,17.2v42.1h-15.9V68.7c0-7.6-0.8-10.7-1.5-12.1c-1-2.6-3.4-6-9.1-6c-3.9,0-7.3,2.1-9.4,5  c-2.8,3.9-3.1,9.7-3.1,15.5v35.1h-15.9V68.7c0-7.6-0.8-10.7-1.5-12.1c-1-2.6-3.4-6-9.1-6c-3.9,0-7.3,2.1-9.4,5  c-2.8,3.9-3.1,9.7-3.1,15.5v35.1h-15.5V37.9z"
   id="path4"
   style="filter:url(#filter3740)" />
</svg>