<?xml version="1.0" encoding="UTF-8" standalone="no"?>
<!-- Created with Inkscape (http://www.inkscape.org/) -->

<svg
   xmlns:dc="http://purl.org/dc/elements/1.1/"
   xmlns:cc="http://creativecommons.org/ns#"
   xmlns:rdf="http://www.w3.org/1999/02/22-rdf-syntax-ns#"
   xmlns:svg="http://www.w3.org/2000/svg"
   xmlns="http://www.w3.org/2000/svg"
   xmlns:sodipodi="http://sodipodi.sourceforge.net/DTD/sodipodi-0.dtd"
   xmlns:inkscape="http://www.inkscape.org/namespaces/inkscape"
   width="115mm"
   height="18mm"
   viewBox="0 0 115 18"
   version="1.1"
   id="svg4583"
   inkscape:version="0.92.3 (2405546, 2018-03-11)"
   sodipodi:docname="element14.svg">
  <defs
     id="defs4577" />
  <sodipodi:namedview
     id="base"
     pagecolor="#ffffff"
     bordercolor="#666666"
     borderopacity="1.0"
     inkscape:pageopacity="0.0"
     inkscape:pageshadow="2"
     inkscape:zoom="0.7"
     inkscape:cx="558.5906"
     inkscape:cy="256.92239"
     inkscape:document-units="mm"
     inkscape:current-layer="layer1"
     showgrid="false"
     inkscape:window-width="1920"
     inkscape:window-height="986"
     inkscape:window-x="-11"
     inkscape:window-y="-11"
     inkscape:window-maximized="1" />
  <metadata
     id="metadata4580">
    <rdf:RDF>
      <cc:Work
         rdf:about="">
        <dc:format>image/svg+xml</dc:format>
        <dc:type
           rdf:resource="http://purl.org/dc/dcmitype/StillImage" />
        <dc:title></dc:title>
      </cc:Work>
    </rdf:RDF>
  </metadata>
  <g
     inkscape:label="Layer 1"
     inkscape:groupmode="layer"
     id="layer1"
     transform="translate(0,-279)">
    <g
       transform="matrix(0.36709779,0,0,-0.36709779,-8.9324053,312.56354)"
       inkscape:label="Connect3_NZ_0711"
       id="g3012"
       style="fill:#000000">
      <g
         transform="matrix(1.3758321,0,0,1.3758321,310.08002,80.532718)"
         id="g3142"
         style="fill:#000000">
        <path
           inkscape:connector-curvature="0"
           id="path3144"
           style="fill:#000000;fill-opacity:1;fill-rule:nonzero;stroke:none"
           d="m 0,0 v -9.692 c 0.034,-3.818 0.416,-6.314 1.321,-7.349 1.318,-1.512 5.185,-1.698 8.434,-1.698 3.092,0 8.559,0.616 9.162,0.764 0.103,-0.911 0.191,-1.482 0.357,-2.848 -0.61,-0.148 -5.673,-1.016 -9.201,-1.159 -5.459,-0.209 -9.955,0.424 -11.884,2.731 -1.49,1.773 -2.26,4.223 -2.26,9.852 0,2.671 0.05,7.481 0.05,9.399 z" />
      </g>
      <path
         inkscape:connector-curvature="0"
         id="path3146"
         style="fill:#000000;fill-opacity:1;fill-rule:nonzero;stroke:none"
         d="m 294.93762,43.849594 h -5.26119 v 36.708577 h 5.26119 z" />
      <path
         inkscape:connector-curvature="0"
         id="path3148"
         style="fill:#000000;fill-opacity:1;fill-rule:nonzero;stroke:none"
         d="m 329.62785,43.849594 h -4.99702 v 28.148151 h 4.99702 z" />
      <g
         style="fill:#000000;fill-opacity:1"
         transform="matrix(1.3758321,0,0,1.3758321,52.423244,65.010318)"
         id="g3150">
        <path
           inkscape:connector-curvature="0"
           id="path3152"
           style="fill:#000000;fill-opacity:1;fill-rule:nonzero;stroke:none"
           d="m 0,0 -0.033,1.232 c 0,2.826 -0.464,4.66 -1.389,5.502 -0.935,0.855 -2.935,1.281 -6.024,1.281 -3.102,0 -5.112,-0.503 -6.031,-1.496 -0.918,-0.99 -1.38,-3.165 -1.38,-6.519 z m 2.123,-14.642 c -0.606,-0.157 -5.843,-1.078 -9.361,-1.078 -4.82,0 -7.981,0.886 -9.481,2.641 -1.505,1.757 -2.26,5.45 -2.26,11.078 0,5.209 0.755,8.706 2.27,10.486 1.519,1.788 4.483,2.677 8.9,2.677 4.818,0 7.976,-0.771 9.473,-2.323 C 3.165,7.291 3.909,4.027 3.909,-0.95 v -2.048 h -18.821 c 0,-4.118 0.44,-6.741 1.322,-7.876 0.885,-1.123 2.952,-1.691 6.196,-1.691 3.089,0 8.558,0.61 9.166,0.765 0.1,-0.914 0.18,-1.481 0.351,-2.842" />
      </g>
      <g
         style="fill:#000000;fill-opacity:1"
         transform="matrix(1.3758321,0,0,1.3758321,105.61581,65.010318)"
         id="g3154">
        <path
           inkscape:connector-curvature="0"
           id="path3156"
           style="fill:#000000;fill-opacity:1;fill-rule:nonzero;stroke:none"
           d="m 0,0 -0.023,1.232 c 0,2.826 -0.467,4.66 -1.399,5.502 -0.931,0.855 -2.932,1.281 -6.019,1.281 -3.101,0 -5.111,-0.503 -6.033,-1.496 C -14.396,5.529 -14.852,3.354 -14.852,0 Z m 2.134,-14.642 c -0.615,-0.157 -5.844,-1.078 -9.373,-1.078 -4.813,0 -7.973,0.886 -9.479,2.641 -1.504,1.757 -2.258,5.45 -2.258,11.078 0,5.209 0.759,8.706 2.271,10.486 1.518,1.788 4.485,2.677 8.902,2.677 4.823,0 7.973,-0.771 9.47,-2.323 C 3.168,7.291 3.922,4.027 3.922,-0.95 v -2.048 h -18.83 c 0,-4.118 0.445,-6.741 1.329,-7.876 0.88,-1.123 2.945,-1.691 6.189,-1.691 3.089,0 8.559,0.61 9.164,0.765 0.102,-0.914 0.187,-1.481 0.36,-2.842" />
      </g>
      <g
         style="fill:#000000;fill-opacity:1"
         transform="matrix(1.3758321,0,0,1.3758321,207.4691,65.010318)"
         id="g3158">
        <path
           inkscape:connector-curvature="0"
           id="path3160"
           style="fill:#000000;fill-opacity:1;fill-rule:nonzero;stroke:none"
           d="m 0,0 -0.03,1.232 c 0,2.826 -0.462,4.66 -1.392,5.502 -0.932,0.855 -2.94,1.281 -6.026,1.281 -3.098,0 -5.112,-0.503 -6.032,-1.496 C -14.401,5.529 -14.86,3.354 -14.86,0 Z m 2.127,-14.642 c -0.61,-0.157 -5.835,-1.078 -9.367,-1.078 -4.814,0 -7.979,0.886 -9.483,2.641 -1.498,1.757 -2.253,5.45 -2.253,11.078 0,5.209 0.758,8.706 2.269,10.486 1.515,1.788 4.482,2.677 8.904,2.677 4.816,0 7.972,-0.771 9.472,-2.323 C 3.161,7.291 3.912,4.027 3.912,-0.95 v -2.048 h -18.826 c 0,-4.118 0.443,-6.741 1.326,-7.876 0.886,-1.123 2.949,-1.691 6.201,-1.691 3.082,0 8.55,0.61 9.161,0.765 0.104,-0.914 0.18,-1.481 0.353,-2.842" />
      </g>
      <path
         inkscape:connector-curvature="0"
         id="path3162"
         style="fill:#000000;fill-opacity:1;fill-rule:nonzero;stroke:none"
         d="m 71.370391,43.885374 h -5.262555 v 46.421954 h 5.262555 z" />
      <g
         style="fill:#000000;fill-opacity:1"
         transform="matrix(1.3758321,0,0,1.3758321,119.36877,79.873013)"
         id="g3164">
        <path
           inkscape:connector-curvature="0"
           id="path3166"
           style="fill:#000000;fill-opacity:1;fill-rule:nonzero;stroke:none"
           d="m 0,0 h 3.39 l 0.355,-3.942 0.08,-0.079 c 1.477,2.922 4.323,4.38 8.531,4.38 4.432,0 7.118,-1.458 8.076,-4.38 h 0.105 c 1.643,2.922 4.651,4.38 9.02,4.38 6.179,0 9.271,-3.136 9.271,-9.416 v -17.1 h -3.833 v 17.459 c 0,2.293 -0.405,3.853 -1.233,4.677 -0.822,0.818 -2.373,1.233 -4.664,1.233 -3.039,0 -5.096,-0.575 -6.177,-1.71 -1.083,-1.143 -1.62,-3.316 -1.62,-6.531 v -15.128 h -3.824 v 17.1 l -0.054,1.204 c 0,3.371 -1.928,5.065 -5.773,5.065 -5.213,0 -7.825,-2.839 -7.825,-8.508 V -26.157 H 0 Z" />
      </g>
      <g
         style="fill:#000000;fill-opacity:1"
         transform="matrix(1.3758321,0,0,1.3758321,221.75409,79.873013)"
         id="g3168">
        <path
           inkscape:connector-curvature="0"
           id="path3170"
           style="fill:#000000;fill-opacity:1;fill-rule:nonzero;stroke:none"
           d="m 0,0 h 3.177 l 0.406,-3.554 0.112,-0.083 c 1.164,2.663 4.062,3.996 8.701,3.996 3.741,0 6.265,-0.651 7.592,-1.96 1.323,-1.315 1.986,-3.823 1.986,-7.54 v -17.016 h -3.828 v 16.693 0.988 c 0,2.24 -0.428,3.744 -1.281,4.522 -0.859,0.777 -2.514,1.166 -4.962,1.166 -5.383,0 -8.078,-2.546 -8.078,-7.638 V -26.157 H 0 Z" />
      </g>
      <g
         style="fill:#000000;fill-opacity:1"
         transform="matrix(1.3758321,0,0,1.3758321,274.30974,79.873013)"
         id="g3172">
        <path
           inkscape:connector-curvature="0"
           id="path3174"
           style="fill:#000000;fill-opacity:1;fill-rule:nonzero;stroke:none"
           d="m 0,0 -0.356,-3.154 h -5.123 v -16.044 c 0,-2.777 1.238,-4.069 3.708,-4.17 1.103,-0.041 2.705,0.007 3.625,0.113 l 0.43,-2.686 c -1.46,-0.418 -3.188,-0.582 -4.021,-0.582 -5.043,0 -7.568,2.141 -7.568,6.4 v 0.925 16.044 h -3.616 V 0 h 3.616 v 7.966 h 3.826 V 0 Z" />
      </g>
    </g>
  </g>
</svg>
