<?xml version="1.0" encoding="UTF-8" standalone="no"?>
<!-- Created with Inkscape (http://www.inkscape.org/) -->

<svg
   xmlns:dc="http://purl.org/dc/elements/1.1/"
   xmlns:cc="http://creativecommons.org/ns#"
   xmlns:rdf="http://www.w3.org/1999/02/22-rdf-syntax-ns#"
   xmlns:svg="http://www.w3.org/2000/svg"
   xmlns="http://www.w3.org/2000/svg"
   xmlns:sodipodi="http://sodipodi.sourceforge.net/DTD/sodipodi-0.dtd"
   xmlns:inkscape="http://www.inkscape.org/namespaces/inkscape"
   width="94mm"
   height="49mm"
   viewBox="0 0 94 49"
   version="1.1"
   id="svg819"
   inkscape:version="0.92.3 (2405546, 2018-03-11)"
   sodipodi:docname="smallpeice.svg">
  <defs
     id="defs813" />
  <sodipodi:namedview
     id="base"
     pagecolor="#ffffff"
     bordercolor="#666666"
     borderopacity="1.0"
     inkscape:pageopacity="0.0"
     inkscape:pageshadow="2"
     inkscape:zoom="1.4"
     inkscape:cx="366.66212"
     inkscape:cy="135.77457"
     inkscape:document-units="mm"
     inkscape:current-layer="layer1"
     showgrid="false"
     inkscape:window-width="1920"
     inkscape:window-height="986"
     inkscape:window-x="-11"
     inkscape:window-y="-11"
     inkscape:window-maximized="1" />
  <metadata
     id="metadata816">
    <rdf:RDF>
      <cc:Work
         rdf:about="">
        <dc:format>image/svg+xml</dc:format>
        <dc:type
           rdf:resource="http://purl.org/dc/dcmitype/StillImage" />
        <dc:title></dc:title>
      </cc:Work>
    </rdf:RDF>
  </metadata>
  <g
     inkscape:label="Layer 1"
     inkscape:groupmode="layer"
     id="layer1"
     transform="translate(0,-248)">
    <path
       style="fill:#000000;stroke-width:0.09731143"
       d="m 35.894267,296.61428 c -0.329242,-0.0656 -0.722485,-0.45094 -0.783471,-0.76782 -0.04474,-0.23249 -0.0013,-0.36545 0.19695,-0.6009 0.152633,-0.1814 0.21448,-0.32703 0.154591,-0.36405 -0.129095,-0.0798 -0.129804,-0.60406 -0.0011,-0.68371 0.05439,-0.0336 0.07371,-0.10189 0.04291,-0.15171 -0.03079,-0.0498 -0.01027,-0.0906 0.04564,-0.0906 0.05589,0 0.01484,-0.14232 -0.09121,-0.31626 -0.511485,-0.8389 0.01302,-1.74958 1.011047,-1.75546 0.44164,-0.003 1.595805,0.11077 1.787723,0.1756 0.208375,0.0704 0.133382,0.33949 -0.121639,0.43645 -0.204068,0.0776 -0.245137,0.15954 -0.254802,0.50848 -0.0063,0.22879 -0.0069,0.44705 -0.0013,0.48501 0.0056,0.038 -0.140909,0.1843 -0.325609,0.32518 -0.24564,0.18736 -0.494282,0.27051 -0.92591,0.30965 -0.324546,0.0294 -0.614508,0.093 -0.644355,0.14132 -0.131729,0.21313 0.19749,0.34549 1.008586,0.40547 0.749734,0.0555 0.877636,0.0927 1.070425,0.31172 0.643085,0.7306 -0.199909,1.71543 -1.441739,1.68431 -0.290851,-0.007 -0.617955,-0.031 -0.726903,-0.0527 z m 1.487458,-0.61417 c 0.606076,-0.36953 0.274053,-0.73355 -0.72989,-0.80024 -0.527833,-0.0351 -0.634394,-0.0126 -0.805992,0.17008 -0.159544,0.16983 -0.179396,0.25873 -0.102783,0.46025 0.106124,0.27912 0.249026,0.33596 0.884502,0.35181 0.281321,0.007 0.550987,-0.058 0.754163,-0.1819 z m -0.312838,-2.4937 c 0.289822,-0.1899 0.319268,-0.59902 0.06565,-0.91222 -0.348165,-0.42996 -1.285467,-0.17786 -1.285467,0.34574 0,0.6081 0.67669,0.92235 1.219817,0.56648 z m -36.64131214,-0.54835 1.36e-4,-2.50577 1.09475394,5.3e-4 c 1.235296,5.3e-4 1.708935,0.0983 2.244315,0.46292 0.571608,0.38928 0.867084,0.97715 0.922111,1.83459 0.05386,0.83928 -0.120445,1.41569 -0.589746,1.95019 -0.499141,0.56849 -0.751303,0.64661 -2.284882,0.70788 l -1.38682294,0.0554 1.36e-4,-2.50577 z m 2.56222994,1.74051 c 0.743295,-0.31057 1.15509,-1.25312 0.958376,-2.19361 -0.142608,-0.6818 -0.350249,-0.97122 -0.898758,-1.25269 -0.357169,-0.18329 -0.558914,-0.21707 -1.162041,-0.19462 l -0.729835,0.0272 -0.02643,1.87324 -0.02643,1.87325 h 0.783719 c 0.441775,0 0.922324,-0.0579 1.101398,-0.13274 z m 2.741379,0.72708 c -0.338815,-0.14765 -0.574138,-0.49097 -0.574138,-0.83762 0,-0.5821 0.521705,-0.97388 1.440678,-1.08189 0.66783,-0.0785 0.809341,-0.21655 0.640283,-0.62469 -0.2179,-0.52606 -0.620805,-0.61193 -1.273906,-0.27152 -0.391603,0.20412 -0.410119,0.20523 -0.53656,0.0323 -0.153096,-0.20937 -0.0545,-0.3748 0.345211,-0.57922 0.751951,-0.38457 1.665572,-0.22637 1.969909,0.3411 0.1478004,0.27559 0.1780304,0.55941 0.1780304,1.6715 0,1.30384 -0.0055,1.33955 -0.2082234,1.33955 -0.114522,0 -0.262479,-0.0742 -0.328792,-0.16489 -0.113263,-0.15489 -0.135984,-0.15478 -0.37491,0.002 -0.301775,0.19773 -1.003429,0.29307 -1.277582,0.1736 z m 1.24246,-0.64651 c 0.27703,-0.18825 0.363178,-0.31273 0.363178,-0.5248 0,-0.35256 -0.18013,-0.42203 -0.758294,-0.29246 -0.727151,0.16296 -1.003723,0.55318 -0.64577,0.91113 0.223579,0.22358 0.627297,0.18717 1.040886,-0.0939 z m 5.0827822,0.59232 c -1.048206,-0.38443 -1.426752,-1.72958 -0.791687,-2.81324 0.210984,-0.36001 0.34038,-0.46386 0.74573,-0.5985 0.952014,-0.31621 1.774451,0.10174 2.012428,1.02267 0.172466,0.66742 0.149247,0.68118 -1.149515,0.68118 -1.290319,0 -1.380404,0.0458 -1.155776,0.58814 0.246869,0.596 1.07887,0.85433 1.655149,0.51391 0.310021,-0.18314 0.581243,-0.11691 0.581243,0.14192 0,0.40966 -1.227346,0.70972 -1.897572,0.46392 z m 1.294931,-2.40399 c 0.0387,-0.33441 -0.285231,-0.56895 -0.785794,-0.56895 -0.55314,0 -0.885854,0.37462 -0.759861,0.85557 0.0041,0.0156 0.346819,0.0156 0.761609,0 0.735358,-0.0277 0.754908,-0.0349 0.784046,-0.28662 z m 3.920057,2.43894 c -0.43708,-0.17476 -0.488997,-0.35018 -0.49229,-1.66339 l -0.0031,-1.23426 -0.267606,-0.0308 c -0.191607,-0.022 -0.276438,-0.093 -0.298703,-0.24975 -0.02523,-0.17764 0.01543,-0.21895 0.215528,-0.21895 0.291065,0 0.447478,-0.24322 0.449582,-0.69911 0.0019,-0.41095 0.118856,-0.59441 0.350761,-0.5502 0.151868,0.029 0.187886,0.13807 0.211934,0.64209 l 0.02897,0.60722 h 0.481914 c 0.449167,0 0.481913,0.0165 0.481913,0.24328 0,0.22726 -0.03224,0.24328 -0.489552,0.24328 h -0.489552 l 0.02732,1.19207 0.02732,1.19206 h 0.419763 c 0.300559,0 0.447393,0.049 0.517056,0.17268 0.08129,0.14427 0.04075,0.19631 -0.246342,0.31627 -0.390664,0.16322 -0.590241,0.17132 -0.924928,0.0375 z m 2.762512,0.0198 c -0.831467,-0.21122 -1.161,-0.7127 -1.16377,-1.77099 -0.0017,-0.65748 0.02887,-0.78261 0.27989,-1.14482 0.558214,-0.80551 1.934967,-0.89045 2.577183,-0.15901 0.524419,0.59728 0.601407,1.63402 0.178473,2.40338 -0.301039,0.54762 -1.154314,0.8537 -1.871776,0.67144 z m 1.112282,-0.7315 c 0.683742,-0.72781 0.293169,-2.29622 -0.571817,-2.29622 -0.601723,0 -0.931193,0.30287 -1.031413,0.94814 -0.148436,0.95572 0.234364,1.58196 0.967002,1.58196 0.313995,0 0.470595,-0.0576 0.636228,-0.23388 z m 3.730998,0.74108 c -0.21756,-0.034 -0.218951,-0.0452 -0.218951,-1.7628 0,-0.95074 0.02165,-1.75027 0.0481,-1.77672 0.02646,-0.0265 0.177846,-0.0291 0.336424,-0.006 l 0.288322,0.0423 0.02849,1.73631 c 0.0307,1.87052 0.03691,1.84776 -0.482391,1.76669 z m 3.600524,0.0122 c -0.0882,-0.0356 -0.121642,-0.38303 -0.121642,-1.26374 0,-1.44955 -0.119388,-1.78046 -0.643726,-1.78426 -0.113207,-7.9e-4 -0.321209,0.0893 -0.46223,0.2002 -0.254251,0.19999 -0.256402,0.21264 -0.256402,1.50832 v 1.30664 h -0.340591 -0.34059 v -1.7516 -1.75161 h 0.231364 c 0.127249,0 0.286696,0.0667 0.354326,0.14816 0.105297,0.12688 0.152437,0.12909 0.328176,0.0154 0.500931,-0.32409 1.118629,-0.26425 1.398609,0.13547 0.132839,0.18966 0.139298,0.18885 0.426995,-0.0532 0.160666,-0.13519 0.387284,-0.25329 0.503603,-0.26244 0.116316,-0.009 0.299064,-0.0234 0.406106,-0.0317 0.310396,-0.0239 0.722667,0.22649 0.928399,0.5639 0.164029,0.26902 0.190005,0.49417 0.190318,1.64957 1.95e-4,0.73592 -0.03248,1.34368 -0.07262,1.35058 -0.04014,0.007 -0.190322,0.0198 -0.333737,0.0288 l -0.260752,0.0162 -0.03118,-1.39916 c -0.0279,-1.25209 -0.05104,-1.41367 -0.220076,-1.53708 -0.302604,-0.22094 -0.695833,-0.17047 -0.923123,0.11848 -0.180303,0.22922 -0.201686,0.38914 -0.201686,1.50833 0,0.6954 -0.03972,1.25192 -0.08935,1.25192 -0.04914,0 -0.147672,0.0184 -0.218951,0.041 -0.07128,0.0225 -0.184335,0.0189 -0.251238,-0.008 z m 3.605803,-0.12587 c -0.375007,-0.22866 -0.519139,-0.75415 -0.312666,-1.13994 0.160851,-0.30056 0.674587,-0.5705 1.256171,-0.66005 0.722511,-0.11124 0.778492,-0.14231 0.778492,-0.43204 0,-0.32267 -0.359646,-0.69159 -0.674201,-0.69159 -0.123066,0 -0.394778,0.0961 -0.603804,0.2136 -0.36244,0.2037 -0.387848,0.20567 -0.548463,0.0425 -0.159885,-0.1624 -0.154781,-0.18291 0.100743,-0.40489 0.539612,-0.46877 1.457188,-0.52838 1.966498,-0.12776 0.340098,0.26752 0.439245,0.74112 0.439865,2.10111 5.29e-4,1.19044 1.95e-4,1.19206 -0.23082,1.19206 -0.127252,0 -0.283131,-0.0624 -0.346398,-0.1386 -0.09878,-0.11903 -0.172654,-0.11245 -0.522801,0.0465 -0.522404,0.23718 -0.912557,0.23689 -1.302616,-10e-4 z m 1.475871,-0.54657 c 0.210775,-0.13811 0.250952,-0.22992 0.226811,-0.51828 l -0.02934,-0.35044 -0.437179,0.0335 c -0.647179,0.0497 -0.96904,0.25367 -0.97235,0.61637 -0.0043,0.47192 0.646468,0.58941 1.212055,0.21882 z m 7.057927,-1.08289 v -1.78072 h 0.252394 c 0.16664,0 0.268909,0.0632 0.301019,0.18598 0.0473,0.18108 0.0577,0.18064 0.392128,-0.0167 0.461341,-0.27219 1.20061,-0.28272 1.489573,-0.0212 0.42232,0.38219 0.484229,0.6461 0.484229,2.06422 v 1.34617 l -0.316261,-0.003 -0.31626,-0.003 -0.0487,-1.38269 c -0.056,-1.59088 -0.122351,-1.7244 -0.817102,-1.64392 -0.66167,0.0766 -0.7268,0.22261 -0.749419,1.67965 l -0.0199,1.28045 -0.325879,0.038 -0.325885,0.038 z m 4.573632,1.61989 c -0.67977,-0.30047 -0.924449,-0.73505 -0.924449,-1.64187 0,-0.84287 0.153728,-1.18904 0.69178,-1.55771 0.4412,-0.30232 1.220308,-0.32384 1.69623,-0.0469 0.39736,0.23126 0.66611,0.72371 0.672619,1.23253 l 0.005,0.36492 h -1.170789 c -0.957101,0 -1.181139,0.027 -1.227481,0.14771 -0.0776,0.20226 0.147082,0.74033 0.394581,0.94488 0.25382,0.20978 1.017979,0.22745 1.27958,0.0296 0.220668,-0.1669 0.49221,-0.19078 0.578679,-0.0509 0.127341,0.20605 -0.0703,0.46733 -0.46871,0.61946 -0.54361,0.20761 -0.990219,0.1954 -1.52672,-0.0417 z m 1.45968,-2.18421 c 0.12781,-0.15401 0.0439,-0.33529 -0.281429,-0.6082 -0.222139,-0.18633 -0.827001,-0.14765 -1.104501,0.0706 -0.24152,0.18997 -0.395539,0.52391 -0.290219,0.62923 0.0299,0.0299 0.391949,0.0543 0.804648,0.0543 0.548273,0 0.782982,-0.0393 0.871501,-0.14596 z m -37.8742321,0.53532 0.02857,-1.75172 h 0.2356097 c 0.139541,0 0.280076,0.0831 0.344664,0.20377 l 0.1090537,0.20377 0.240445,-0.22588 c 0.166315,-0.15625 0.3569417,-0.22589 0.6183077,-0.22589 0.4576,0 0.514308,0.0474 0.434969,0.3635 -0.05037,0.20069 -0.138617,0.2565 -0.488603,0.30898 -0.7104507,0.10654 -0.8217567,0.33956 -0.8217567,1.72035 v 1.15461 l -0.3649177,1e-4 -0.3649177,10e-5 0.02857,-1.75172 z m 30.1670571,0.26749 c -0.03992,-2.03696 -0.04315,-2.01921 0.366623,-2.01921 h 0.334126 v 1.75161 1.7516 h -0.33583 -0.335833 z m -14.229606,-2.75597 c -0.08411,-0.0841 -0.152919,-0.23425 -0.152919,-0.33364 0,-0.1932 0.242734,-0.48656 0.402594,-0.48656 0.260413,0 0.473209,0.2188 0.473209,0.48656 0,0.4276 -0.430318,0.6262 -0.722884,0.33364 z m 14.268637,0.0361 c -0.185033,-0.18503 -0.141877,-0.64144 0.07145,-0.75561 0.103527,-0.0554 0.231767,-0.10073 0.284986,-0.10073 0.159858,0 0.402592,0.29336 0.402592,0.48656 0,0.38309 -0.501433,0.62738 -0.759028,0.36978 z m -1.376442,-8.03299 c 0.03816,-3.21251 0.08927,-4.65562 0.173943,-4.91094 0.06595,-0.19886 0.304371,-0.63552 0.529833,-0.97036 1.675575,-2.48844 5.128911,-2.5729 6.9385,-0.16969 0.65355,0.86793 0.77022,1.34799 0.76704,3.15591 -0.0021,1.37652 -0.0277,1.61949 -0.218379,2.09631 -0.6882,1.72126 -2.48071,2.76582 -4.435991,2.58502 -0.77433,-0.0716 -1.779995,-0.4825 -2.227673,-0.91021 l -0.267605,-0.25567 v 1.96444 1.96443 l -0.656851,7e-5 -0.656852,7e-5 z m 5.422617,0.3648 c 0.58905,-0.25341 1.214009,-0.88945 1.512999,-1.53984 0.181221,-0.39419 0.209172,-0.63054 0.209172,-1.7687 0,-1.49068 -0.116711,-1.88454 -0.774012,-2.61209 -0.548619,-0.60726 -1.27815,-0.92365 -2.128589,-0.92314 -1.185646,7.9e-4 -2.136019,0.59685 -2.66336,1.67069 -0.255238,0.51975 -0.270504,0.62498 -0.270504,1.86454 0,1.16477 0.02537,1.36887 0.223753,1.80026 0.696767,1.51514 2.368269,2.16314 3.890541,1.50828 z m -41.1233622,1.3557 c -0.230985,-0.0454 -0.559411,-0.16912 -0.729836,-0.27482 -0.45516797,-0.28231 -1.00769294,-0.88182 -0.88793194,-0.96344 0.05547,-0.0378 0.29900697,-0.20782 0.54118297,-0.37781 l 0.44031997,-0.30908 0.262147,0.27774 c 0.330317,0.34997 0.848663,0.52427 1.356552,0.45615 0.9332,-0.12517 1.590679,-1.16151 1.336277,-2.10628 -0.113162,-0.42026 -0.335648,-0.61138 -1.538989,-1.32204 -1.75672297,-1.03746 -2.13212597,-1.78732 -1.678752,-3.35325 0.350273,-1.20983 2.057122,-1.92459 3.275071,-1.37146 0.378012,0.17167 1.113512,0.8111 1.10553,0.96113 -0.002,0.0384 -0.242501,0.2318 -0.534358,0.42986 -0.505138,0.3428 -0.535507,0.35104 -0.631699,0.1713 -0.128019,-0.2392 -0.59339,-0.48276 -0.922428,-0.48276 -0.344368,0 -0.7649,0.23109 -0.958663,0.52681 -0.201123,0.30696 -0.207929,1.01635 -0.01243,1.29546 0.08139,0.11621 0.62202,0.49689 1.201393,0.84597 1.70113,1.02496 2.141077,1.66625 2.022863,2.94865 -0.147128,1.59607 -1.098294,2.52796 -2.73972,2.68419 -0.267606,0.0255 -0.675545,0.009 -0.906529,-0.0363 z m 5.069821,-0.0617 c -0.02466,-0.0644 -0.03,-1.64184 -0.01187,-3.50549 l 0.03297,-3.38845 0.315414,-0.64047 c 1.0080214,-2.04686 3.4375832,-2.56961 5.0799192,-1.09301 l 0.49052,0.44102 0.239021,-0.28406 c 0.131462,-0.15624 0.514961,-0.43368 0.852219,-0.61655 0.568757,-0.30839 0.676669,-0.33248 1.489,-0.33248 0.822324,0 0.914427,0.0213 1.508327,0.3488 0.768579,0.42382 1.389741,1.14406 1.601411,1.85682 0.122896,0.41384 0.150232,1.12602 0.150399,3.91833 l 1.95e-4,3.41257 -0.62807,-0.0324 -0.628069,-0.0324 -0.02899,-3.37348 c -0.02743,-3.19244 -0.0398,-3.39408 -0.23046,-3.75753 -0.426142,-0.81234 -1.278696,-1.21864 -2.148252,-1.02377 -0.596162,0.13361 -0.948249,0.39654 -1.27475,0.95196 l -0.267973,0.45587 -0.02983,3.4059 -0.02983,3.4059 -0.602691,-0.0141 -0.602689,-0.0141 -0.04866,-3.44048 c -0.05199,-3.67616 -0.04656,-3.63623 -0.571432,-4.20334 -0.849043,-0.91736 -2.2981654,-0.77004 -3.0378671,0.30885 l -0.2345027,0.34203 -0.04866,3.49675 -0.04866,3.49675 -0.6206534,0.0138 c -0.404992,0.009 -0.636235,-0.0269 -0.665495,-0.10324 z m 16.4417482,0.0627 c -0.654982,-0.12916 -1.739522,-0.75104 -2.178865,-1.24936 -0.792589,-0.89899 -1.056087,-1.75127 -1.056087,-3.41589 0,-1.3166 0.161547,-2.05666 0.612317,-2.80505 1.737991,-2.88552 5.930391,-2.70015 7.427921,0.32842 l 0.3772,0.76285 0.04866,2.46627 c 0.05338,2.70576 0.03932,2.64901 0.656852,2.65192 l 0.316262,10e-4 v 0.63253 c 0,0.69095 0.02233,0.67012 -0.68118,0.63546 -0.437126,-0.0215 -1.028806,-0.40783 -1.28202,-0.837 l -0.19815,-0.33588 -0.333933,0.2932 c -0.917156,0.80527 -2.343609,1.14025 -3.708973,0.871 z m 2.193043,-1.35671 c 0.59047,-0.25402 1.215907,-0.89149 1.510756,-1.53984 0.177736,-0.39082 0.207309,-0.64027 0.209695,-1.7687 0.0024,-1.1388 -0.02482,-1.37359 -0.204623,-1.76351 -0.294219,-0.6381 -0.811323,-1.17113 -1.449229,-1.49388 -0.452966,-0.22918 -0.672777,-0.27818 -1.246343,-0.27784 -1.186374,7.9e-4 -2.136573,0.59659 -2.664042,1.67069 -0.255475,0.52023 -0.270442,0.62383 -0.269391,1.86454 9.79e-4,1.16074 0.02704,1.37036 0.223753,1.80026 0.692757,1.51396 2.366998,2.16321 3.889424,1.50828 z m 6.838874,1.3474 c -0.505254,-0.0918 -1.02956,-0.48317 -1.284761,-0.95902 -0.169823,-0.31666 -0.180538,-0.66739 -0.180538,-5.90924 v -5.57259 h 0.632523 0.632524 v 5.44249 c 0,6.0419 -0.03289,5.74832 0.643922,5.74832 h 0.338088 l -0.02877,0.6479 c -0.03211,0.72294 -0.04247,0.73123 -0.752984,0.60214 z m 3.316352,-0.003 c -0.499478,-0.0857 -1.015619,-0.45082 -1.254215,-0.88713 -0.154786,-0.28306 -0.174596,-0.8199 -0.218847,-5.93101 l -0.04865,-5.61977 0.656852,4e-5 0.656852,4e-5 v 5.44249 c 0,6.03778 -0.0322,5.74832 0.639477,5.74832 h 0.333639 v 0.66033 c 0,0.73616 0.01934,0.72134 -0.765101,0.58669 z m 14.414445,-0.0285 c -1.256012,-0.35361 -2.124131,-1.05368 -2.662362,-2.14698 l -0.33138,-0.67313 v -1.80436 -1.80435 l 0.317381,-0.6447 c 0.369289,-0.75012 1.29205,-1.67577 2.00429,-2.01057 1.150649,-0.54087 2.48912,-0.53364 3.608289,0.0195 1.68619,0.83335 2.57505,2.45832 2.468042,4.5119 l -0.0292,0.56076 -3.589251,0.0255 -3.589258,0.0255 0.0598,0.43608 c 0.128302,0.93604 0.856742,1.85615 1.78708,2.25731 0.45216,0.19496 1.59144,0.21905 2.093622,0.0443 0.199369,-0.0694 0.57032,-0.29791 0.824328,-0.50782 l 0.461851,-0.38165 0.416391,0.40866 c 0.229018,0.22476 0.415038,0.45427 0.413379,0.51003 -0.005,0.17603 -0.84841,0.74668 -1.480582,1.00202 -0.762989,0.30819 -2.013079,0.38573 -2.77237,0.17196 z m 4.016107,-5.76788 c -0.219699,-1.50829 -1.845879,-2.64707 -3.36786,-2.35844 -0.67038,0.12714 -1.054169,0.32334 -1.533599,0.78402 -0.487878,0.4688 -0.77747,1.00805 -0.85839,1.59844 l -0.0601,0.43821 h 2.943622 2.943619 z m 2.380771,1.16774 -6.8e-5,-4.69528 h 0.67283 0.672819 l -0.01601,4.68814 -0.01601,4.68813 -0.656789,0.007 -0.65678,0.007 -7.2e-5,-4.69528 z m 5.668661,4.64109 c -1.497819,-0.29547 -2.79256,-1.54749 -3.13486,-3.03142 -0.143401,-0.62168 -0.123801,-2.7731 0.0304,-3.34007 0.0723,-0.26589 0.148958,-0.54741 0.170299,-0.6256 0.0213,-0.0782 0.0711,-0.18767 0.110551,-0.24328 0.787199,-1.1091 1.421939,-1.66871 2.27892,-2.00918 0.461589,-0.18338 0.75189,-0.22592 1.541769,-0.22592 1.175089,0 1.806329,0.21271 2.63534,0.88801 l 0.54438,0.44345 -0.462859,0.46992 -0.462852,0.46992 -0.343569,-0.30165 c -0.854419,-0.7502 -2.145541,-0.9277 -3.155119,-0.43376 -0.69287,0.339 -1.253393,0.95555 -1.52404,1.67642 -0.191111,0.50901 -0.211921,0.71738 -0.179052,1.79236 0.0427,1.39608 0.19076,1.82412 0.86731,2.50743 0.591971,0.59789 1.156401,0.83009 2.031809,0.83589 0.828202,0.005 1.384972,-0.19345 1.963772,-0.70164 0.301059,-0.26433 0.364509,-0.28616 0.46831,-0.16109 0.066,0.0796 0.169839,0.11625 0.23068,0.0815 0.0608,-0.0348 0.077,-0.0262 0.0359,0.019 -0.0411,0.0452 0.0603,0.22145 0.225272,0.39166 l 0.299961,0.30949 -0.371242,0.2924 c -1.06879,0.84182 -2.43899,1.16486 -3.801118,0.89616 z m 7.8833,-0.0472 c -2.05356,-0.55305 -3.13823,-2.14927 -3.13823,-4.61825 0,-2.15627 0.82718,-3.6203 2.517481,-4.45569 0.704318,-0.3481 0.76839,-0.36122 1.762749,-0.36122 0.993569,0 1.05876,0.0133 1.756648,0.35908 0.905233,0.44847 1.652442,1.17746 2.064182,2.01382 0.282001,0.57283 0.312729,0.7294 0.360259,1.83541 0.0286,0.66504 0.0337,1.22731 0.0114,1.24948 -0.02231,0.0222 -1.637541,0.0403 -3.58942,0.0403 h -3.54888 l 0.0614,0.44825 c 0.14188,1.03514 1.02842,2.03024 2.081501,2.33637 0.937649,0.27259 1.975419,0.034 2.74909,-0.63194 l 0.34059,-0.29318 0.455099,0.44626 0.455099,0.44626 -0.406447,0.33989 c -0.223542,0.18694 -0.504971,0.38488 -0.625391,0.43987 -0.12043,0.055 -0.21895,0.12945 -0.21895,0.16546 0,0.036 -0.0547,0.0679 -0.12164,0.0709 -0.0669,0.003 -0.38264,0.0759 -0.70163,0.16218 -0.701122,0.18956 -1.57657,0.19219 -2.26496,0.007 z m 4.061339,-5.52537 c 0,-0.79106 -0.86341,-1.99376 -1.727219,-2.40595 -0.64031,-0.30555 -1.736471,-0.30916 -2.36764,-0.008 -0.899332,0.42938 -1.58901,1.31717 -1.710221,2.20149 l -0.0601,0.43821 h 2.93257 2.93257 v -0.22595 z m 14.196451,7.57297 c -0.92588,2.7e-4 -2.142691,-2.11574 -3.18076,-3.64786 -0.910701,-1.34412 -6.788229,-10.13081 -9.029991,-14.07792 -0.646538,-1.13839 -1.182748,-1.97316 -1.239959,-1.9304 -0.0353,0.0264 -0.044,0.0205 -0.01939,-0.0131 -2.15755,-0.29762 -1.103111,-0.13567 -5.46318,-1.27016 -0.320112,-0.0545 -2.217841,-0.78078 -2.788841,-1.06734 -1.970899,-0.9891 -3.07762,-2.25264 -3.079951,-3.51636 -0.0021,-0.93263 0.482121,-1.68493 1.626381,-2.52874 2.56567,-1.89201 7.93124,-3.25151 13.7722,-3.48953 0.89648,-0.0365 1.62996,-0.0984 1.62996,-0.1376 0,-0.0689 -0.93069,-0.84622 -1.681271,-1.40416 -0.20216,-0.15027 -0.34843,-0.29236 -0.325059,-0.31574 0.02339,-0.0234 0.690991,-0.0501 1.48358,-0.0594 l 1.441079,-0.0169 0.262152,-0.72983 c 0.14418,-0.40141 0.360749,-1.00714 0.481259,-1.34606 0.241281,-0.67856 0.25537,-0.67289 0.564041,0.22698 0.110149,0.32112 0.30434,0.8685 0.431549,1.21639 l 0.231269,0.63252 1.498801,0.0487 1.498799,0.0487 -0.923888,0.69559 c -1.253612,0.94385 -1.361781,1.0464 -1.361781,1.291 0,0.11669 0.15326,0.73956 0.34059,1.38416 0.18732,0.64459 0.34059,1.21647 0.34059,1.27083 0,0.16668 -0.252471,0.0166 -1.254599,-0.74593 -0.529862,-0.40317 -1.04009,-0.73303 -1.13384,-0.73303 -0.0937,0 -0.569042,0.29956 -1.05619,0.66569 -0.487151,0.36614 -1.00412,0.74206 -1.148821,0.83538 l -0.263099,0.16969 0.192778,-0.66509 c 0.540012,-1.86306 0.644441,-2.27072 0.581681,-2.27072 -0.238601,0 -2.257311,0.3182 -3.070299,0.48395 -5.708462,1.16388 -9.201732,3.63762 -8.399991,5.94841 0.215961,0.62243 0.751329,1.32807 1.398061,1.84268 0.67202,0.53475 3.084218,1.82379 3.13391,1.67472 0.01561,-0.0468 -0.321681,-0.6943 -0.74952,-1.43887 -0.840401,-1.46253 -0.839001,-1.44718 -0.141372,-1.5574 l 0.379891,-0.06 0.62419,0.8593 c 1.026721,1.41344 1.46694,1.98459 2.199899,2.85417 0.38345,0.45493 0.71502,0.87792 0.736812,0.93998 0.0952,0.271 2.306989,2.73895 3.692599,4.12022 2.871639,2.86263 4.74872,3.86469 6.02235,3.21493 1.95848,-0.99915 4.084569,-6.65559 5.70729,-15.18424 0.19857,-1.04366 0.365721,-1.90403 0.371451,-1.91192 0.006,-0.008 0.244729,-0.0835 0.531159,-0.16799 l 0.52078,-0.15363 -0.0489,0.80051 c -0.0269,0.44028 -0.1392,1.67631 -0.24954,2.74674 -0.110339,1.07042 -0.289229,2.82203 -0.397549,3.89245 -0.326221,3.22394 -0.830702,7.50132 -1.319861,11.19082 -0.579969,4.37427 -1.25186,7.97125 -1.60759,8.94015 -0.51934,1.41451 -0.944041,2.44499 -1.759849,2.44526 z m -31.827681,-13.47786 -0.0308,-0.97333 0.687531,2e-4 0.68753,1.9e-4 0.005,0.97312 0.005,0.97311 h -0.66145 -0.66144 l -0.0308,-0.97333 z m 28.309062,-0.90368 c -0.577782,-0.18557 -1.036352,-0.61947 -1.345642,-1.27325 -0.233849,-0.4943 -0.281829,-0.721 -0.28067,-1.32607 0.0021,-0.95694 0.16564,-1.46898 0.649721,-2.03096 0.95322,-1.10662 2.392479,-1.00278 3.265361,0.23558 0.167719,0.23794 0.315978,0.48745 0.32947,0.55446 0.24647,1.22432 0.217998,1.87098 -0.110342,2.50591 -0.083,0.1606 -0.119388,0.29199 -0.0807,0.29199 0.11639,0 -0.579001,0.68082 -0.892392,0.87368 -0.387218,0.2383 -1.080648,0.3145 -1.534758,0.16866 z m -8.297701,-6.10901 c 0,-1e-5 0,10e-6 0,2e-5 z m 12.640889,-6.4231 -0.50015,-0.37314 -0.4729,0.33623 c -0.260099,0.18492 -0.4865,0.29545 -0.503108,0.24561 -0.01659,-0.0498 0.0372,-0.31743 0.119488,-0.59466 l 0.149691,-0.50406 -0.265509,-0.22715 c -0.146042,-0.12493 -0.374992,-0.31575 -0.508802,-0.42405 l -0.243279,-0.1969 0.243279,-0.0111 c 0.13381,-0.006 0.416531,-0.0185 0.628272,-0.0276 0.408638,-0.0175 0.482809,-0.0991 0.766058,-0.84358 l 0.129591,-0.34059 0.17685,0.53521 c 0.0973,0.29437 0.225131,0.56738 0.284141,0.60671 0.059,0.0393 0.370028,0.0727 0.691158,0.0741 l 0.583872,0.003 -0.291941,0.23071 c -0.16056,0.1269 -0.398071,0.3169 -0.527799,0.42223 l -0.235871,0.19151 0.170371,0.6072 c 0.0937,0.33396 0.156048,0.61996 0.138559,0.63555 -0.01749,0.0156 -0.256889,-0.13955 -0.531971,-0.34477 z m -3.79227,-9.40937 c 0.162991,-0.64275 0.15527,-0.67142 -0.28121,-1.04485 l -0.38925,-0.33302 0.516282,-0.004 0.516278,-0.004 0.207082,-0.49831 0.207089,-0.49829 0.219909,0.4983 0.219921,0.49831 h 0.555321 0.555318 l -0.394128,0.2855 c -0.216771,0.15703 -0.422381,0.33122 -0.456912,0.38709 -0.0345,0.0559 0.003,0.32151 0.0823,0.5903 0.0798,0.26879 0.110271,0.48871 0.0677,0.48871 -0.0426,0 -0.259188,-0.13164 -0.481309,-0.29254 -0.222109,-0.1609 -0.403841,-0.2459 -0.403841,-0.18888 0,0.057 -0.0379,0.0802 -0.0843,0.0516 -0.0464,-0.0287 -0.166301,0.0385 -0.26652,0.14923 -0.100211,0.11074 -0.255191,0.2404 -0.34439,0.28814 -0.147931,0.0792 -0.15191,0.0463 -0.0453,-0.37393 z"
       id="path8104"
       inkscape:connector-curvature="0"
       sodipodi:nodetypes="ccccccsccccccccccccccccccccccsccccccccccccccccccscccscccccssscccccsccccccccsccsccsccccccccsccccssscccsccccccccsccscsccscccccccsccscccccsccccccccccccccssccccccsscccccscccccccccccccscccscccccccccccsccccsccccccccccssccccscccsccsccccccscccccccssscccssccscccccsscccccsccsccssscccccccccccccccscccsccccccsscccscccccccccccccccsccccccccccsccccccsccccccccccccssscccscccssccccccccccsscsccccccccccccccccccccccccccscccccccccccccccccccccscccccccccccccsccccccscsccccscccccccccscccccccccccccssccccccccsccccccccccccscscsccccscccscccccccccccccsccsscccccccccccccccccscccccccccccccsccccccccccccccccccccccccccccccscsscccc" />
  </g>
</svg>
